<svg width="60" height="60" viewBox="0 0 60 60" fill="none" xmlns="http://www.w3.org/2000/svg">
<rect width="6" height="6" transform="matrix(-1 0 0 1 53 27)" fill="white"/>
<rect width="6" height="6" transform="matrix(-1 0 0 1 47 27)" fill="white"/>
<rect width="6" height="6" transform="matrix(-1 0 0 1 41 27)" fill="white"/>
<rect width="6" height="6" transform="matrix(-1 0 0 1 35 27)" fill="white"/>
<rect width="6" height="6" transform="matrix(-1 0 0 1 29 27)" fill="white"/>
<rect width="6" height="6" transform="matrix(-1 0 0 1 17 27)" fill="white"/>
<rect width="6" height="6" transform="matrix(-1 0 0 1 23 27)" fill="white"/>
<rect width="6" height="6" transform="matrix(-1 0 0 1 11 27)" fill="white"/>
<rect width="6" height="6" transform="matrix(-1 0 0 1 17 21)" fill="white"/>
<rect width="6" height="6" transform="matrix(-1 0 0 1 17 33)" fill="white"/>
<rect width="6" height="6" transform="matrix(-1 0 0 1 23 39)" fill="white"/>
<rect width="6" height="6" transform="matrix(-1 0 0 1 29 45)" fill="white"/>
<rect width="6" height="6" transform="matrix(-1 0 0 1 23 15)" fill="white"/>
<rect width="6" height="6" transform="matrix(-1 0 0 1 29 9)" fill="white"/>
</svg>
