<svg width="131" height="73" viewBox="0 0 131 73" fill="none" xmlns="http://www.w3.org/2000/svg">
<path d="M33.2617 11.3335C34.2936 11.6146 34.7286 12.3607 34.8976 13.2581C35.0798 14.2204 35.2116 15.1984 35.2787 16.1751C35.3782 17.612 35.4021 19.0537 35.4597 20.4929C35.4693 20.726 35.4824 20.9579 35.5004 21.3003C36.6186 20.8101 37.6409 20.3572 38.5709 19.7108C38.8429 19.5222 38.777 19.2543 38.765 18.9984C38.6943 17.4822 38.8285 15.9865 39.23 14.5232C39.3619 14.0426 39.5728 13.5837 39.7717 13.1248C39.8484 12.9494 39.9755 12.7872 40.1073 12.6454C40.3973 12.3331 40.7545 12.2369 41.0457 12.3799C41.398 12.5541 41.422 12.8749 41.4124 13.2173C41.4004 13.6197 41.41 14.0222 41.41 14.4523C41.5251 14.4079 41.5706 14.4007 41.603 14.3754C42.6085 13.5789 43.5085 13.6558 44.3055 14.6698C44.6806 15.1467 44.9874 15.6813 45.2906 16.21C45.7892 17.081 46.2554 17.9688 46.742 18.847C46.8546 19.0501 46.9913 19.2387 47.1722 19.5198C47.2801 19.2711 47.3616 19.1257 47.4083 18.9696C47.6876 18.0517 47.9668 17.1326 48.2317 16.21C48.6847 14.6313 49.3043 13.12 50.0258 11.6495C50.0821 11.5341 50.154 11.4248 50.2271 11.3179C50.2487 11.2866 50.3014 11.277 50.3805 11.2374C50.7736 11.408 50.897 11.8128 50.945 12.1733C51.066 13.0779 51.1787 13.9934 51.1619 14.9028C51.1439 15.8147 50.9917 16.7266 50.8503 17.6312C50.6573 18.859 50.4356 20.0845 50.1899 21.3027C50.0953 21.7688 49.9443 22.2362 49.7429 22.6663C48.9603 24.3386 47.2513 24.6918 45.8683 23.4748C45.0749 22.7756 44.4769 21.9142 43.9412 21.0107C43.6643 20.5434 43.4091 20.0628 43.0855 19.4838C43.0232 19.724 42.9656 19.8706 42.95 20.022C42.7751 21.7388 42.6372 23.4568 42.8242 25.1844C42.8542 25.4607 42.8398 25.7562 42.7787 26.0266C42.6372 26.6573 42.2382 27.0718 41.597 27.1943C40.933 27.3205 40.3722 27.0934 40.0198 26.5191C39.8197 26.1924 39.6794 25.8055 39.6111 25.4271C39.3678 24.0971 39.1677 22.7588 38.9508 21.424C38.9196 21.2354 38.8885 21.0468 38.8477 20.8053C38.7303 20.8786 38.6596 20.9146 38.5972 20.9639C37.7451 21.6391 36.9134 22.3443 36.0337 22.9798C35.6862 23.2309 35.5615 23.4652 35.5867 23.8869C35.7581 26.6813 36.168 29.4421 36.6785 32.1909C36.9613 33.7131 37.3161 35.2281 37.2502 36.7935C37.2346 37.1623 37.1819 37.5311 37.1135 37.8952C37.0644 38.1571 36.9422 38.3985 36.6461 38.4694C36.3453 38.5403 36.126 38.3757 35.9858 38.1486C35.5639 37.4639 35.0606 36.8031 34.7837 36.0606C34.1965 34.4904 33.6632 32.8925 33.2365 31.2719C32.7811 29.5442 32.4743 27.7782 32.104 26.0278C32.0644 25.8391 32.0285 25.6493 31.9853 25.4271C31.4053 25.6697 30.8552 25.9004 30.1876 26.1791C30.0798 26.9084 29.9551 27.765 29.8233 28.6216C29.7442 29.1394 29.6651 29.6572 29.5596 30.1702C29.5069 30.4225 29.4254 30.6808 29.302 30.9054C29.006 31.4437 28.4247 31.702 27.8686 31.583C27.2946 31.4593 26.8823 31.01 26.8008 30.4044C26.7804 30.2543 26.7744 30.0981 26.7864 29.9467C27.2202 24.6305 27.8818 19.3516 29.441 14.2265C29.9563 12.5313 30.6622 10.9106 31.4628 9.33317C31.6689 8.92709 31.905 8.52463 32.1927 8.17502C32.3904 7.93354 32.6768 7.71969 32.9681 7.61036C33.6308 7.36288 34.1126 7.78457 33.97 8.47417C33.8202 9.19981 33.6128 9.91344 33.4307 10.6331C33.3779 10.8409 33.3288 11.0512 33.2617 11.3335ZM30.552 23.7511C30.8923 23.5493 31.12 23.3871 31.3693 23.2742C31.7001 23.124 31.778 22.8921 31.7552 22.5449C31.7037 21.7448 31.6941 20.9411 31.6641 20.1397C31.6582 19.9787 31.639 19.8189 31.627 19.658C31.1248 20.9567 30.7737 22.277 30.552 23.7511Z" fill="#EBE2BC"/>
<path d="M13.3765 5.46003C13.0398 5.54653 12.7725 5.61501 12.5053 5.68469C9.34732 6.50885 6.19177 7.34022 3.03143 8.15116C2.5077 8.28572 1.9612 8.34699 1.42189 8.39985C1.16902 8.42508 0.896969 8.38063 0.652483 8.30854C0.410394 8.23646 0.252197 8.03823 0.270174 7.76191C0.285754 7.51682 0.433164 7.38467 0.666864 7.30297C6.17259 5.37834 11.7071 3.54621 17.3926 2.21146C19.9333 1.61436 22.4729 1.01006 25.0208 0.443002C25.9112 0.244772 26.8233 0.146257 27.7281 0.0117008C27.8935 -0.0123271 28.0661 0.00809665 28.3309 0.00809665C28.2279 0.195514 28.1907 0.356502 28.09 0.426182C27.7161 0.686885 27.3362 0.945186 26.9311 1.15303C25.1622 2.06489 23.2794 2.6812 21.3751 3.22904C19.3053 3.82493 17.2272 4.39439 15.1539 4.97587C14.9477 5.03354 14.7452 5.10442 14.5175 5.1765C14.5079 5.3447 14.4911 5.49367 14.4923 5.64144C14.5391 14.897 14.8303 24.1502 14.6925 33.4057C14.6493 36.3131 14.4791 39.2072 13.9087 42.0666C13.5791 43.7185 13.1548 45.3416 12.4717 46.8866C11.9468 48.0736 11.278 49.1656 10.3396 50.0763C9.6757 50.7202 8.93145 51.25 8.06377 51.578C6.60284 52.1307 5.28214 51.8664 4.11843 50.8308C3.49044 50.2721 3.04341 49.5741 2.6611 48.834C2.03671 47.6242 1.62803 46.3363 1.31164 45.0184C0.493088 41.6124 -0.0606015 38.1728 0.00531385 34.6552C0.0424661 32.7269 0.247403 30.8215 0.845435 28.9786C0.986853 28.5449 1.17501 28.1244 1.36077 27.7075C1.41351 27.5873 1.53575 27.4984 1.62563 27.3963C1.67237 27.4083 1.71791 27.4203 1.76465 27.4324C1.76465 27.6126 1.78023 27.794 1.76226 27.9718C1.16662 33.6952 2.1194 39.2397 3.73732 44.6952C4.02615 45.6684 4.50673 46.591 4.96454 47.5029C5.16349 47.8993 5.50745 48.2369 5.82983 48.5553C6.19297 48.9133 6.6376 48.9446 7.09661 48.7103C7.85044 48.3283 8.46165 47.7804 8.9698 47.1112C9.60978 46.2679 10.052 45.3224 10.39 44.3252C11.121 42.1615 11.4854 39.9245 11.6675 37.655C11.7526 36.5894 11.7946 35.519 11.8221 34.4509C11.9624 28.8861 12.069 23.3212 12.2344 17.7563C12.3243 14.7024 12.4489 11.6472 12.8588 8.6149C12.9787 7.72947 13.1632 6.85365 13.3166 5.97183C13.3406 5.82766 13.3502 5.68229 13.3765 5.46003Z" fill="#EBE2BC"/>
<path d="M56.1571 21.5658C55.6477 21.6547 55.118 21.7472 54.5392 21.8494C54.5188 22.0944 54.4948 22.3275 54.4792 22.563C54.3953 23.7812 54.3222 25.0006 54.2264 26.2176C54.2012 26.5408 54.1437 26.8712 54.0358 27.1751C53.8189 27.7843 53.252 28.1339 52.6672 28.069C52.0523 28.0017 51.5766 27.5127 51.5023 26.8436C51.4759 26.6069 51.4855 26.363 51.5046 26.1251C51.7695 22.909 51.9685 19.6832 52.5329 16.5019C52.8301 14.8296 53.2041 13.1705 53.5588 11.5077C53.6223 11.2122 53.7362 10.9227 53.8608 10.6463C53.9939 10.3496 54.2323 10.185 54.5751 10.155C54.7549 10.1393 54.9442 10.0721 55.0988 9.97716C55.7592 9.56989 56.4399 9.65038 56.8726 10.2895C57.1242 10.6596 57.334 11.0969 57.4202 11.533C57.6971 12.9218 57.92 14.3202 58.1393 15.7198C58.3251 16.9044 58.4737 18.095 58.6427 19.282C58.6607 19.4069 58.705 19.5271 58.741 19.6664C59.5979 19.5655 60.3217 19.1738 61.06 18.7666C61.0612 19.4201 60.758 19.6965 58.9219 20.7549C58.9471 20.9363 58.9663 21.1465 59.0046 21.3532C59.3462 23.1961 59.7045 25.0367 60.0233 26.8832C60.0844 27.234 60.0401 27.6233 59.9586 27.9741C59.8747 28.3357 59.5859 28.5628 59.2012 28.5988C58.8081 28.636 58.5228 28.4366 58.3634 28.0942C58.2076 27.7602 58.083 27.4094 57.9691 27.0574C57.3963 25.2745 56.8306 23.4893 56.2613 21.7052C56.2482 21.6655 56.2098 21.6355 56.1571 21.5658ZM55.2654 15.8292C54.8208 17.3045 54.7513 18.7954 54.6362 20.3813C55.106 20.3176 55.4979 20.2635 55.9054 20.2083C55.6849 18.7005 55.4752 17.2648 55.2654 15.8292Z" fill="#EBE2BC"/>
<path d="M18.9556 14.2541C19.429 13.8805 19.8413 13.4744 20.3231 13.1885C22.2334 12.0532 24.127 12.6935 24.9635 14.7467C25.6059 16.3241 25.7869 18.0001 25.8707 19.6784C25.9654 21.5778 25.987 23.4929 25.5208 25.3514C25.3087 26.1972 24.9959 27.0646 24.5237 27.7879C23.3732 29.5515 21.4173 29.8014 19.7634 28.5051C18.8957 27.8251 18.2929 26.9409 17.8375 25.9509C16.9458 24.0155 16.5611 21.9671 16.651 19.8502C16.7301 18.0145 16.9578 16.1884 17.5187 14.4223C17.557 14.3022 17.5522 14.1532 17.6229 14.0607C17.7871 13.8481 17.9693 13.5285 18.1742 13.5045C18.3552 13.4828 18.5829 13.794 18.7759 13.9742C18.8562 14.0523 18.9017 14.1688 18.9556 14.2541ZM21.965 25.713C22.2442 25.1196 22.5079 24.6594 22.684 24.168C23.2281 22.6591 23.3827 21.0781 23.3 19.4946C23.2377 18.304 23.0723 17.1038 22.8003 15.9433C22.5582 14.9065 22.1004 14.7659 21.1081 15.1888C20.9343 15.2621 20.7677 15.3558 20.6047 15.4507C19.6459 16.0118 18.9424 16.7038 19.2481 17.964C19.3212 18.2668 19.2864 18.5936 19.3128 18.9083C19.459 20.6528 19.7814 22.3539 20.5688 23.9362C20.8804 24.5597 21.2219 25.1604 21.965 25.713Z" fill="#EBE2BC"/>
<path d="M71.3703 7.60439C71.6292 7.30284 71.7718 7.10821 71.942 6.94362C72.9859 5.93445 74.1927 5.23283 75.6476 5.01538C78.2399 4.62853 80.233 6.26122 80.2749 8.89228C80.2893 9.77531 80.1766 10.6908 79.9429 11.5414C79.5055 13.138 78.9374 14.6998 78.4221 16.2749C78.3082 16.6221 78.1848 16.9669 78.0362 17.397C78.4772 17.4438 78.8392 17.4787 79.1999 17.5207C80.1718 17.6348 81.151 17.7105 82.1133 17.8775C83.2639 18.077 84.3269 18.5215 85.2401 19.2796C85.3013 19.33 85.3827 19.3576 85.5493 19.4465C85.5206 19.1318 85.5074 18.9011 85.4786 18.674C85.179 16.3073 85.0376 13.9333 85.2713 11.5534C85.3612 10.6427 85.5194 9.73806 85.6692 8.83462C85.7183 8.53547 85.8214 8.24233 85.9245 7.9564C86.3571 6.7586 86.8916 6.41981 88.1812 6.54115C88.331 6.36455 88.494 6.16391 88.6665 5.97289C89.563 4.98054 90.5829 4.18882 91.9527 3.98939C93.5958 3.75031 94.9285 4.73665 95.2041 6.38136C95.3408 7.19831 95.2245 7.99003 94.9968 8.77334C94.5881 10.179 93.8906 11.426 92.9354 12.5301C92.6826 12.8233 92.4297 13.1164 92.1505 13.4408C92.3194 13.5657 92.4321 13.663 92.5579 13.7399C94.37 14.8416 96.0023 16.1884 97.6658 17.4919C98.6329 18.25 99.4719 19.1354 100.133 20.177C100.366 20.5434 100.556 20.9387 100.729 21.3375C100.806 21.5141 100.791 21.7316 100.832 22.038C100.552 21.9442 100.385 21.9094 100.238 21.8373C97.8731 20.6732 95.5169 19.4886 93.319 18.0253C92.5436 17.5087 91.8197 16.9044 91.1318 16.2737C90.7555 15.9277 90.4522 15.4735 90.2066 15.0182C89.6601 14.003 89.865 13.2257 90.831 12.6106C92.3842 11.6219 92.9942 10.1694 92.9738 8.3901C92.9678 7.90954 92.8875 7.7017 92.5939 7.23796C92.3566 7.36531 92.0977 7.47223 91.876 7.62961C91.0359 8.22671 90.4498 9.03645 90.052 9.97594C89.2286 11.9222 88.8906 13.9586 89.1255 16.0586C89.533 19.7024 89.9896 23.3415 90.4223 26.9829C90.4606 27.3073 90.4978 27.6353 90.4918 27.9608C90.475 28.8547 89.9513 29.5395 89.1879 29.7017C88.3741 29.8747 87.6311 29.4542 87.2571 28.6048C87.1972 28.4678 87.1445 28.3273 87.0438 28.0786C86.9779 28.2564 86.9336 28.3381 86.9168 28.4246C86.0455 32.8037 84.6613 37.0338 83.2135 41.2459C81.3619 46.6317 79.448 51.996 77.6491 57.3998C76.3607 61.2707 75.1419 65.1657 73.7073 68.9873C73.3538 69.928 73.0745 70.8915 72.9859 71.9019C72.9691 72.0953 72.9775 72.3596 72.727 72.35C72.5808 72.344 72.3986 72.165 72.3063 72.0172C71.8234 71.2411 71.6244 70.3713 71.5465 69.4703C71.3188 66.8524 71.6388 64.2826 72.2644 61.7465C73.1021 58.3514 74.2598 55.0559 75.3912 51.7533C77.1158 46.7158 78.9015 41.7 80.6117 36.6577C81.628 33.6603 82.5352 30.6255 83.0841 27.5007C83.2615 26.4939 83.3813 25.4655 83.3945 24.4456C83.4173 22.6471 82.8636 21.9899 81.1018 21.6871C80.0316 21.5033 78.9362 21.4757 77.8576 21.3351C77.256 21.257 76.6448 21.1561 76.0755 20.9579C74.4851 20.4029 73.7145 19.0777 74.001 17.4102C74.104 16.8119 74.297 16.2256 74.4899 15.6477C74.9453 14.2817 75.4415 12.929 75.8897 11.5606C76.0719 11.0031 76.1882 10.4217 76.3068 9.84499C76.3619 9.57467 76.3511 9.28994 76.3727 8.96316C76.1774 8.94995 76.03 8.9115 75.8945 8.93433C74.3629 9.20344 73.0614 9.89304 72.0271 11.0728C71.7982 11.3335 71.6927 11.5954 71.7383 11.9606C72.5988 18.781 73.2927 25.6229 74.4803 32.4012C74.8531 34.5265 75.0652 36.683 75.2737 38.8323C75.3576 39.6925 75.2534 40.5731 75.1922 41.4417C75.1695 41.7601 75.07 42.0917 74.9286 42.3788C74.6326 42.9771 73.977 43.0672 73.5276 42.5782C73.325 42.3572 73.1716 42.082 73.0314 41.8129C72.5125 40.8194 72.22 39.7465 71.936 38.6677C70.4355 32.9526 69.623 27.1175 68.9147 21.2643C68.5647 18.3785 68.3262 15.4891 68.3874 12.5782C68.4209 10.9791 68.5791 9.39687 68.9303 7.83746C69.0106 7.47824 69.1304 7.12263 69.2766 6.78383C69.3689 6.56998 69.5163 6.36094 69.6865 6.20115C70.239 5.68335 70.9497 5.87918 71.163 6.60122C71.2445 6.87033 71.2793 7.15026 71.3703 7.60439Z" fill="#EBE2BC"/>
<path d="M125.428 11.706C125.284 11.8922 125.13 12.0712 124.999 12.2658C124.356 13.2257 123.728 14.1965 123.078 15.1528C122.686 15.7295 122.298 16.3145 121.85 16.8456C121.516 17.2408 121.126 17.6108 120.695 17.8944C119.574 18.6344 118.251 18.4867 117.277 17.558C117.011 17.3045 116.788 17.0053 116.488 16.6605C116.46 16.848 116.419 16.9777 116.425 17.1051C116.64 22.1906 116.554 27.2749 116.373 32.3592C116.358 32.7496 116.314 33.1461 116.22 33.5245C116 34.4136 115.329 34.9614 114.511 34.9722C113.663 34.983 112.963 34.4328 112.747 33.5125C112.633 33.0272 112.57 32.519 112.57 32.0216C112.571 29.2283 112.522 26.4315 112.637 23.6431C112.812 19.4346 113.097 15.2309 113.36 11.026C113.432 9.87265 113.584 8.72412 113.723 7.57679C113.759 7.27884 113.847 6.97489 113.973 6.70097C114.65 5.22806 116.563 5.02502 117.487 6.35617C117.776 6.77185 117.951 7.29686 118.064 7.79664C118.316 8.92355 118.479 10.0721 118.716 11.2038C118.845 11.8213 119.043 12.4256 119.22 13.0323C119.26 13.1693 119.341 13.2954 119.443 13.5081C119.634 13.2354 119.781 13.0275 119.925 12.8161C120.733 11.6255 121.51 10.4121 122.359 9.25033C122.859 8.56794 123.42 7.91318 124.042 7.34131C126.068 5.48155 128.391 6.14712 129.056 8.81302C129.349 9.98919 129.485 11.2218 129.545 12.4364C129.677 15.1396 129.75 17.8463 129.786 20.5519C129.861 26.3162 130.029 32.0745 130.488 37.8219C130.62 39.4751 130.813 41.1246 130.922 42.7789C130.997 43.931 131.021 45.0904 130.983 46.2437C130.966 46.7507 130.797 47.2769 130.59 47.7467C130.289 48.4267 129.703 48.5528 129.081 48.1407C128.574 47.8055 128.253 47.313 127.998 46.7735C127.573 45.8773 127.325 44.9222 127.208 43.9466C126.965 41.9103 126.734 39.8703 126.569 37.8267C126.092 31.9279 125.941 26.0146 125.867 20.0977C125.834 17.5448 125.721 14.993 125.639 12.44C125.632 12.207 125.596 11.9751 125.573 11.742C125.524 11.7312 125.476 11.718 125.428 11.706Z" fill="#EBE2BC"/>
<path d="M105.829 19.1474C105.969 18.6729 106.155 18.2068 106.241 17.7226C106.603 15.7054 106.914 13.6799 107.287 11.6652C107.485 10.5947 107.746 9.53508 108.025 8.48386C108.118 8.13665 108.305 7.78825 108.532 7.50952C109.123 6.78628 110.136 6.82713 110.643 7.61044C110.87 7.96365 111.009 8.40456 111.08 8.82385C111.288 10.0565 111.271 11.2975 111.109 12.5398C110.819 14.7684 110.498 16.9921 109.914 19.1667C109.762 19.7337 109.593 20.3068 109.336 20.8318C109.072 21.3736 108.753 21.9143 108.351 22.3588C107.324 23.4953 105.875 23.6767 104.555 22.8982C103.736 22.4152 103.091 21.7341 102.503 21C100.844 18.9324 99.8818 16.5428 99.3041 13.9802C99.0249 12.7404 98.8667 11.4837 99.0512 10.2151C99.1064 9.83302 99.2166 9.44377 99.3844 9.09777C99.6025 8.64484 99.9776 8.3469 100.519 8.3493C101.059 8.3517 101.341 8.71332 101.539 9.14222C101.702 9.49663 101.809 9.87748 101.931 10.2499C102.544 12.1133 103.108 13.9935 103.784 15.8328C104.12 16.7459 104.647 17.5892 105.112 18.4506C105.253 18.7125 105.474 18.9312 105.658 19.1691C105.715 19.1595 105.772 19.1535 105.829 19.1474Z" fill="#EBE2BC"/>
</svg>
