<svg width="59" height="44" viewBox="0 0 59 44" fill="none" xmlns="http://www.w3.org/2000/svg">
<path d="M13.1826 44C9.21708 44 6.00184 42.6032 3.5368 39.8095C1.17895 36.9084 0 33.1477 0 28.5275C0 22.5104 1.76839 16.9231 5.30518 11.7656C8.84196 6.50061 13.2362 2.57875 18.4878 0L19.4523 1.93406C17.2017 3.65324 15.2189 5.85592 13.5041 8.54212C11.7893 11.2283 10.5568 14.5592 9.80658 18.5348L13.1826 19.3407C16.9337 20.2002 19.8275 21.812 21.8638 24.1758C24.0073 26.4322 25.079 29.1722 25.079 32.3956C25.079 35.8339 23.9001 38.6276 21.5422 40.7766C19.2915 42.9255 16.505 44 13.1826 44ZM47.1035 44C43.1381 44 39.9228 42.6032 37.4578 39.8095C35.0999 36.9084 33.921 33.1477 33.921 28.5275C33.921 22.5104 35.6894 16.9231 39.2262 11.7656C42.763 6.50061 47.1571 2.57875 52.4087 0L53.3733 1.93406C51.1226 3.65324 49.1399 5.85592 47.4251 8.54212C45.7103 11.2283 44.4778 14.5592 43.7275 18.5348L47.1035 19.3407C50.8547 20.2002 53.7484 21.812 55.7848 24.1758C57.9283 26.4322 59 29.1722 59 32.3956C59 35.8339 57.8211 38.6276 55.4632 40.7766C53.2126 42.9255 50.426 44 47.1035 44Z" fill="#EBE2BC"/>
</svg>
