<svg width="90" height="39" viewBox="0 0 90 39" fill="none" xmlns="http://www.w3.org/2000/svg">
<rect width="90" height="39" fill="#1A1423"/>
<path d="M6.36615 11.5556C6.36615 12.087 6.54503 12.4954 6.90277 12.7806C7.27376 13.0657 7.77063 13.2083 8.39337 13.2083C8.94986 13.2083 9.3606 13.1176 9.62559 12.9361C9.89059 12.7546 10.1158 12.4824 10.3013 12.1194C10.4736 11.7824 10.7055 11.6139 10.9969 11.6139H15.2899C15.4091 11.6139 15.5085 11.6593 15.588 11.75C15.6807 11.8278 15.7271 11.925 15.7271 12.0417C15.7271 12.8324 15.4555 13.6102 14.9122 14.375C14.369 15.1269 13.5409 15.7556 12.4279 16.2611C11.3282 16.7537 9.98334 17 8.39337 17C6.97564 17 5.71029 16.7926 4.59731 16.3778C3.49758 15.95 2.6231 15.3019 1.97386 14.4333C1.32462 13.5519 1 12.4565 1 11.1472V8.85278C1 7.54352 1.32462 6.45463 1.97386 5.58611C2.6231 4.70463 3.49758 4.05648 4.59731 3.64167C5.71029 3.21389 6.97564 3 8.39337 3C9.98334 3 11.3282 3.25278 12.4279 3.75833C13.5409 4.25093 14.369 4.87963 14.9122 5.64444C15.4555 6.3963 15.7271 7.16759 15.7271 7.95833C15.7271 8.075 15.6807 8.1787 15.588 8.26944C15.5085 8.34722 15.4091 8.38611 15.2899 8.38611H10.9969C10.7055 8.38611 10.4736 8.21759 10.3013 7.88056C10.1158 7.51759 9.89059 7.24537 9.62559 7.06389C9.3606 6.88241 8.94986 6.79167 8.39337 6.79167C7.77063 6.79167 7.27376 6.93426 6.90277 7.21944C6.54503 7.50463 6.36615 7.91296 6.36615 8.44444V11.5556Z" fill="#D4C06E"/>
<path d="M32.5532 12.8194C32.6989 12.8194 32.8248 12.8713 32.9308 12.975C33.0368 13.0787 33.0898 13.2019 33.0898 13.3444V16.2806C33.0898 16.4231 33.0368 16.5463 32.9308 16.65C32.8248 16.7537 32.6989 16.8056 32.5532 16.8056H20.9464C20.8006 16.8056 20.6748 16.7537 20.5688 16.65C20.4628 16.5463 20.4098 16.4231 20.4098 16.2806V3.71944C20.4098 3.57685 20.4628 3.4537 20.5688 3.35C20.6748 3.2463 20.8006 3.19444 20.9464 3.19444H25.2393C25.385 3.19444 25.5109 3.2463 25.6169 3.35C25.7229 3.4537 25.7759 3.57685 25.7759 3.71944V12.8194H32.5532Z" fill="#D4C06E"/>
<path d="M46.6564 12.8194H50.2537C50.3995 12.8194 50.5253 12.8713 50.6313 12.975C50.7373 13.0787 50.7903 13.2019 50.7903 13.3444V16.2806C50.7903 16.4231 50.7373 16.5463 50.6313 16.65C50.5253 16.7537 50.3995 16.8056 50.2537 16.8056H37.6532C37.5074 16.8056 37.3816 16.7537 37.2756 16.65C37.1696 16.5463 37.1166 16.4231 37.1166 16.2806V13.3444C37.1166 13.2019 37.1696 13.0787 37.2756 12.975C37.3816 12.8713 37.5074 12.8194 37.6532 12.8194H41.2902V7.18056H37.6532C37.5074 7.18056 37.3816 7.1287 37.2756 7.025C37.1696 6.9213 37.1166 6.79815 37.1166 6.65556V3.71944C37.1166 3.57685 37.1696 3.4537 37.2756 3.35C37.3816 3.2463 37.5074 3.19444 37.6532 3.19444H50.2537C50.3995 3.19444 50.5253 3.2463 50.6313 3.35C50.7373 3.4537 50.7903 3.57685 50.7903 3.71944V6.65556C50.7903 6.79815 50.7373 6.9213 50.6313 7.025C50.5253 7.1287 50.3995 7.18056 50.2537 7.18056H46.6564V12.8194Z" fill="#D4C06E"/>
<path d="M60.0044 11.5556C60.0044 12.087 60.1833 12.4954 60.541 12.7806C60.912 13.0657 61.4089 13.2083 62.0316 13.2083C62.5881 13.2083 62.9988 13.1176 63.2638 12.9361C63.5288 12.7546 63.7541 12.4824 63.9396 12.1194C64.1118 11.7824 64.3437 11.6139 64.6352 11.6139H68.9281C69.0474 11.6139 69.1467 11.6593 69.2262 11.75C69.319 11.8278 69.3654 11.925 69.3654 12.0417C69.3654 12.8324 69.0937 13.6102 68.5505 14.375C68.0073 15.1269 67.1791 15.7556 66.0662 16.2611C64.9664 16.7537 63.6216 17 62.0316 17C60.6139 17 59.3485 16.7926 58.2356 16.3778C57.1358 15.95 56.2613 15.3019 55.6121 14.4333C54.9629 13.5519 54.6382 12.4565 54.6382 11.1472V8.85278C54.6382 7.54352 54.9629 6.45463 55.6121 5.58611C56.2613 4.70463 57.1358 4.05648 58.2356 3.64167C59.3485 3.21389 60.6139 3 62.0316 3C63.6216 3 64.9664 3.25278 66.0662 3.75833C67.1791 4.25093 68.0073 4.87963 68.5505 5.64444C69.0937 6.3963 69.3654 7.16759 69.3654 7.95833C69.3654 8.075 69.319 8.1787 69.2262 8.26944C69.1467 8.34722 69.0474 8.38611 68.9281 8.38611H64.6352C64.3437 8.38611 64.1118 8.21759 63.9396 7.88056C63.7541 7.51759 63.5288 7.24537 63.2638 7.06389C62.9988 6.88241 62.5881 6.79167 62.0316 6.79167C61.4089 6.79167 60.912 6.93426 60.541 7.21944C60.1833 7.50463 60.0044 7.91296 60.0044 8.44444V11.5556Z" fill="#D4C06E"/>
<path d="M87.9205 16.125C87.9735 16.2028 88 16.287 88 16.3778C88 16.4944 87.9536 16.5981 87.8609 16.6889C87.7814 16.7667 87.682 16.8056 87.5628 16.8056H82.4351C82.1304 16.8056 81.8919 16.7019 81.7196 16.4944L78.2614 12.3139V16.2806C78.2614 16.4231 78.2084 16.5463 78.1024 16.65C77.9964 16.7537 77.8706 16.8056 77.7248 16.8056H73.6306C73.4849 16.8056 73.359 16.7537 73.253 16.65C73.147 16.5463 73.094 16.4231 73.094 16.2806V3.71944C73.094 3.57685 73.147 3.4537 73.253 3.35C73.359 3.2463 73.4849 3.19444 73.6306 3.19444H77.7248C77.8706 3.19444 77.9964 3.2463 78.1024 3.35C78.2084 3.4537 78.2614 3.57685 78.2614 3.71944V7.375L81.4016 3.525C81.6004 3.30463 81.8455 3.19444 82.137 3.19444H86.9268C87.046 3.19444 87.1454 3.23981 87.2249 3.33056C87.3176 3.40833 87.364 3.50556 87.364 3.62222C87.364 3.72593 87.3309 3.81667 87.2646 3.89444L82.5543 9.51389L87.9205 16.125Z" fill="#D4C06E"/>
<path d="M37.6572 20.5786C37.8836 20.1929 38.208 20 38.6305 20H42.7728C42.9388 20 43.0822 20.0571 43.2029 20.1714C43.3236 20.2857 43.384 20.4214 43.384 20.5786V34.4214C43.384 34.5786 43.3236 34.7143 43.2029 34.8286C43.0822 34.9429 42.9388 35 42.7728 35H38.6758C38.5098 35 38.3665 34.9429 38.2457 34.8286C38.125 34.7143 38.0647 34.5786 38.0647 34.4214V27.7786L36.4123 30.8643C36.367 30.9643 36.2614 31.0786 36.0954 31.2071C35.9294 31.3357 35.7181 31.4 35.4616 31.4H33.9224C33.6658 31.4 33.4546 31.3357 33.2886 31.2071C33.1226 31.0786 33.017 30.9643 32.9717 30.8643L31.3193 27.7786V34.4214C31.3193 34.5786 31.259 34.7143 31.1382 34.8286C31.0175 34.9429 30.8742 35 30.7082 35H26.6112C26.4452 35 26.3018 34.9429 26.1811 34.8286C26.0604 34.7143 26 34.5786 26 34.4214V20.5786C26 20.4214 26.0604 20.2857 26.1811 20.1714C26.3018 20.0571 26.4452 20 26.6112 20H30.7534C31.176 20 31.5004 20.1929 31.7268 20.5786L34.692 25.7214L37.6572 20.5786Z" fill="#D4C06E"/>
<path d="M62.3888 30.8214C62.5548 30.8214 62.6982 30.8786 62.8189 30.9929C62.9396 31.1071 63 31.2429 63 31.4V34.4214C63 34.5786 62.9396 34.7143 62.8189 34.8286C62.6982 34.9429 62.5548 35 62.3888 35H48.0833C47.9173 35 47.7739 34.9429 47.6532 34.8286C47.5325 34.7143 47.4721 34.5786 47.4721 34.4214V20.5786C47.4721 20.4214 47.5325 20.2857 47.6532 20.1714C47.7739 20.0571 47.9173 20 48.0833 20H62.1625C62.3285 20 62.4718 20.0571 62.5926 20.1714C62.7133 20.2857 62.7736 20.4214 62.7736 20.5786V23.6C62.7736 23.7571 62.7133 23.8929 62.5926 24.0071C62.4718 24.1214 62.3285 24.1786 62.1625 24.1786H53.3573V25.5286H60.9175C61.0835 25.5286 61.2269 25.5857 61.3476 25.7C61.4683 25.8143 61.5287 25.95 61.5287 26.1071V28.8929C61.5287 29.05 61.4683 29.1857 61.3476 29.3C61.2269 29.4143 61.0835 29.4714 60.9175 29.4714H53.3573V30.8214H62.3888Z" fill="#D4C06E"/>
</svg>
